<svg width="16" height="16" viewBox="0 0 16 16" fill="none" xmlns="http://www.w3.org/2000/svg">
<path d="M6.77997 12.6667C6.87957 12.667 6.97798 12.645 7.06796 12.6024C7.15795 12.5597 7.23723 12.4974 7.29997 12.42L10.52 8.42002C10.618 8.30073 10.6716 8.1511 10.6716 7.99669C10.6716 7.84227 10.618 7.69264 10.52 7.57335L7.18664 3.57335C7.07348 3.43721 6.91087 3.35159 6.73459 3.33534C6.5583 3.31909 6.38278 3.37353 6.24664 3.48669C6.1105 3.59985 6.02488 3.76245 6.00863 3.93874C5.99237 4.11502 6.04681 4.29054 6.15997 4.42669L9.13997 8.00002L6.25997 11.5734C6.17845 11.6712 6.12667 11.7904 6.11075 11.9167C6.09483 12.0431 6.11544 12.1714 6.17014 12.2864C6.22485 12.4014 6.31135 12.4984 6.41943 12.5658C6.5275 12.6332 6.65262 12.6682 6.77997 12.6667Z" fill="#6619D2"/>
</svg>
